<mxfile host="app.diagrams.net" modified="2024-04-01T06:09:27.272Z" agent="Mozilla/5.0 (Windows NT 10.0; Win64; x64; rv:124.0) Gecko/20100101 Firefox/124.0" etag="cA9fOhh8BTwk5lVV05aT" version="24.0.7" type="device">
  <diagram name="Page-1" id="zeUAoeYTYEMwCBAbQ9nX">
    <mxGraphModel dx="2222" dy="746" grid="1" gridSize="10" guides="1" tooltips="1" connect="1" arrows="1" fold="1" page="1" pageScale="1" pageWidth="850" pageHeight="1100" math="0" shadow="0">
      <root>
        <mxCell id="0" />
        <mxCell id="1" parent="0" />
        <mxCell id="qCNQR4URj5oET9t-w2uO-11" value="" style="strokeWidth=1;shadow=0;dashed=0;align=center;html=1;shape=mxgraph.mockup.containers.browserWindow;rSize=0;strokeColor=#666666;strokeColor2=#008cff;strokeColor3=#c4c4c4;mainText=,;recursiveResize=0;" parent="1" vertex="1">
          <mxGeometry x="-760" y="20" width="800" height="1250" as="geometry" />
        </mxCell>
        <mxCell id="qCNQR4URj5oET9t-w2uO-12" value="Page 1" style="strokeWidth=1;shadow=0;dashed=0;align=center;html=1;shape=mxgraph.mockup.containers.anchor;fontSize=17;fontColor=#666666;align=left;whiteSpace=wrap;" parent="qCNQR4URj5oET9t-w2uO-11" vertex="1">
          <mxGeometry x="60" y="12" width="110" height="26" as="geometry" />
        </mxCell>
        <mxCell id="qCNQR4URj5oET9t-w2uO-13" value="https://www.draw.io" style="strokeWidth=1;shadow=0;dashed=0;align=center;html=1;shape=mxgraph.mockup.containers.anchor;rSize=0;fontSize=17;fontColor=#666666;align=left;" parent="qCNQR4URj5oET9t-w2uO-11" vertex="1">
          <mxGeometry x="130" y="60" width="250" height="26" as="geometry" />
        </mxCell>
        <mxCell id="qCNQR4URj5oET9t-w2uO-26" value="Navbar" style="html=1;shadow=0;dashed=0;fillColor=#343A40;strokeColor=none;fontSize=16;fontColor=#ffffff;align=left;spacing=15;" parent="qCNQR4URj5oET9t-w2uO-11" vertex="1">
          <mxGeometry y="110" width="800" height="60" as="geometry" />
        </mxCell>
        <mxCell id="qCNQR4URj5oET9t-w2uO-27" value="Home" style="fillColor=none;strokeColor=none;fontSize=14;fontColor=#ffffff;align=center;" parent="qCNQR4URj5oET9t-w2uO-26" vertex="1">
          <mxGeometry width="70" height="40" relative="1" as="geometry">
            <mxPoint x="70" y="10" as="offset" />
          </mxGeometry>
        </mxCell>
        <mxCell id="qCNQR4URj5oET9t-w2uO-28" value="Features" style="fillColor=none;strokeColor=none;fontSize=14;fontColor=#9A9DA0;align=center;" parent="qCNQR4URj5oET9t-w2uO-26" vertex="1">
          <mxGeometry width="70" height="40" relative="1" as="geometry">
            <mxPoint x="140" y="10" as="offset" />
          </mxGeometry>
        </mxCell>
        <mxCell id="qCNQR4URj5oET9t-w2uO-29" value="Pricing" style="fillColor=none;strokeColor=none;fontSize=14;fontColor=#9A9DA0;align=center;spacingRight=0;" parent="qCNQR4URj5oET9t-w2uO-26" vertex="1">
          <mxGeometry width="80" height="40" relative="1" as="geometry">
            <mxPoint x="210" y="10" as="offset" />
          </mxGeometry>
        </mxCell>
        <mxCell id="qCNQR4URj5oET9t-w2uO-30" value="About" style="fillColor=none;strokeColor=none;fontSize=14;fontColor=#9A9DA0;align=center;" parent="qCNQR4URj5oET9t-w2uO-26" vertex="1">
          <mxGeometry width="80" height="40" relative="1" as="geometry">
            <mxPoint x="290" y="10" as="offset" />
          </mxGeometry>
        </mxCell>
        <mxCell id="qCNQR4URj5oET9t-w2uO-31" value="Search" style="html=1;shadow=0;dashed=0;shape=mxgraph.bootstrap.rrect;rSize=5;fontSize=14;fontColor=#1CA5B8;strokeColor=#1CA5B8;fillColor=none;" parent="qCNQR4URj5oET9t-w2uO-26" vertex="1">
          <mxGeometry x="1" width="70" height="40" relative="1" as="geometry">
            <mxPoint x="-80" y="10" as="offset" />
          </mxGeometry>
        </mxCell>
        <mxCell id="qCNQR4URj5oET9t-w2uO-32" value="Search" style="html=1;shadow=0;dashed=0;shape=mxgraph.bootstrap.rrect;rSize=5;fontSize=14;fontColor=#6C767D;strokeColor=#CED4DA;fillColor=#ffffff;align=left;spacing=10;" parent="qCNQR4URj5oET9t-w2uO-26" vertex="1">
          <mxGeometry x="1" width="180" height="40" relative="1" as="geometry">
            <mxPoint x="-270" y="10" as="offset" />
          </mxGeometry>
        </mxCell>
        <mxCell id="qCNQR4URj5oET9t-w2uO-33" value="" style="rounded=0;whiteSpace=wrap;html=1;" parent="qCNQR4URj5oET9t-w2uO-11" vertex="1">
          <mxGeometry x="330" y="230" width="400" height="190" as="geometry" />
        </mxCell>
        <mxCell id="qCNQR4URj5oET9t-w2uO-38" value="" style="rounded=0;whiteSpace=wrap;html=1;" parent="qCNQR4URj5oET9t-w2uO-11" vertex="1">
          <mxGeometry x="30" y="230" width="150" height="200" as="geometry" />
        </mxCell>
        <mxCell id="qCNQR4URj5oET9t-w2uO-43" value="&lt;h1&gt;Guitar 1&lt;/h1&gt;&lt;div&gt;&lt;br&gt;&lt;/div&gt;&lt;div&gt;Image of Guitar&lt;br&gt;&lt;/div&gt;" style="text;html=1;whiteSpace=wrap;overflow=hidden;rounded=0;" parent="qCNQR4URj5oET9t-w2uO-11" vertex="1">
          <mxGeometry x="50" y="170" width="180" height="120" as="geometry" />
        </mxCell>
        <mxCell id="qCNQR4URj5oET9t-w2uO-44" value="Buy now" style="rounded=1;fillColor=#0057D8;align=center;strokeColor=none;html=1;whiteSpace=wrap;fontColor=#ffffff;fontSize=12;sketch=0;" parent="qCNQR4URj5oET9t-w2uO-11" vertex="1">
          <mxGeometry x="109" y="441.5" width="86" height="27" as="geometry" />
        </mxCell>
        <mxCell id="qCNQR4URj5oET9t-w2uO-46" value="Price" style="text;html=1;align=center;verticalAlign=middle;whiteSpace=wrap;rounded=0;" parent="qCNQR4URj5oET9t-w2uO-11" vertex="1">
          <mxGeometry x="34.75" y="440" width="60" height="30" as="geometry" />
        </mxCell>
        <mxCell id="qCNQR4URj5oET9t-w2uO-47" value="&lt;h1 style=&quot;margin-top: 0px;&quot;&gt;Tagline&lt;/h1&gt;&lt;p&gt;Explanation Text&lt;br&gt;&lt;/p&gt;" style="text;html=1;whiteSpace=wrap;overflow=hidden;rounded=0;" parent="qCNQR4URj5oET9t-w2uO-11" vertex="1">
          <mxGeometry x="370" y="1070" width="180" height="120" as="geometry" />
        </mxCell>
        <mxCell id="qCNQR4URj5oET9t-w2uO-71" value="" style="rounded=0;whiteSpace=wrap;html=1;" parent="qCNQR4URj5oET9t-w2uO-11" vertex="1">
          <mxGeometry x="30" y="1175" width="740" height="60" as="geometry" />
        </mxCell>
        <mxCell id="qCNQR4URj5oET9t-w2uO-72" value="Footer" style="text;html=1;align=center;verticalAlign=middle;whiteSpace=wrap;rounded=0;" parent="qCNQR4URj5oET9t-w2uO-11" vertex="1">
          <mxGeometry x="380" y="1190" width="60" height="30" as="geometry" />
        </mxCell>
        <mxCell id="6VpeM_rR_zzPdDcRQ0ub-2" value="&lt;font style=&quot;font-size: 20px;&quot;&gt;&lt;b&gt;Guitar Description&lt;/b&gt;&lt;br&gt;&lt;/font&gt;" style="text;html=1;align=center;verticalAlign=middle;whiteSpace=wrap;rounded=0;" vertex="1" parent="qCNQR4URj5oET9t-w2uO-11">
          <mxGeometry x="500" y="310" width="60" height="30" as="geometry" />
        </mxCell>
        <mxCell id="6VpeM_rR_zzPdDcRQ0ub-7" value="" style="rounded=0;whiteSpace=wrap;html=1;" vertex="1" parent="qCNQR4URj5oET9t-w2uO-11">
          <mxGeometry x="330" y="510" width="400" height="190" as="geometry" />
        </mxCell>
        <mxCell id="6VpeM_rR_zzPdDcRQ0ub-8" value="" style="rounded=0;whiteSpace=wrap;html=1;" vertex="1" parent="qCNQR4URj5oET9t-w2uO-11">
          <mxGeometry x="30" y="510" width="150" height="200" as="geometry" />
        </mxCell>
        <mxCell id="6VpeM_rR_zzPdDcRQ0ub-9" value="&lt;h1&gt;Guitar 2&lt;br&gt;&lt;/h1&gt;&lt;div&gt;&lt;br&gt;&lt;/div&gt;&lt;div&gt;Image of Guitar&lt;br&gt;&lt;/div&gt;" style="text;html=1;whiteSpace=wrap;overflow=hidden;rounded=0;" vertex="1" parent="qCNQR4URj5oET9t-w2uO-11">
          <mxGeometry x="50" y="450" width="180" height="120" as="geometry" />
        </mxCell>
        <mxCell id="6VpeM_rR_zzPdDcRQ0ub-10" value="Buy now" style="rounded=1;fillColor=#0057D8;align=center;strokeColor=none;html=1;whiteSpace=wrap;fontColor=#ffffff;fontSize=12;sketch=0;" vertex="1" parent="qCNQR4URj5oET9t-w2uO-11">
          <mxGeometry x="109" y="721.5" width="86" height="27" as="geometry" />
        </mxCell>
        <mxCell id="6VpeM_rR_zzPdDcRQ0ub-11" value="Price" style="text;html=1;align=center;verticalAlign=middle;whiteSpace=wrap;rounded=0;" vertex="1" parent="qCNQR4URj5oET9t-w2uO-11">
          <mxGeometry x="34.75" y="720" width="60" height="30" as="geometry" />
        </mxCell>
        <mxCell id="6VpeM_rR_zzPdDcRQ0ub-12" value="&lt;font style=&quot;font-size: 20px;&quot;&gt;&lt;b&gt;Guitar Description&lt;/b&gt;&lt;br&gt;&lt;/font&gt;" style="text;html=1;align=center;verticalAlign=middle;whiteSpace=wrap;rounded=0;" vertex="1" parent="qCNQR4URj5oET9t-w2uO-11">
          <mxGeometry x="500" y="590" width="60" height="30" as="geometry" />
        </mxCell>
        <mxCell id="6VpeM_rR_zzPdDcRQ0ub-13" value="" style="rounded=0;whiteSpace=wrap;html=1;" vertex="1" parent="qCNQR4URj5oET9t-w2uO-11">
          <mxGeometry x="330" y="800" width="400" height="190" as="geometry" />
        </mxCell>
        <mxCell id="6VpeM_rR_zzPdDcRQ0ub-14" value="" style="rounded=0;whiteSpace=wrap;html=1;" vertex="1" parent="qCNQR4URj5oET9t-w2uO-11">
          <mxGeometry x="30" y="800" width="150" height="200" as="geometry" />
        </mxCell>
        <mxCell id="6VpeM_rR_zzPdDcRQ0ub-15" value="&lt;h1&gt;Guitar 3&lt;br&gt;&lt;/h1&gt;&lt;div&gt;&lt;br&gt;&lt;/div&gt;&lt;div&gt;Image of Guitar&lt;br&gt;&lt;/div&gt;" style="text;html=1;whiteSpace=wrap;overflow=hidden;rounded=0;" vertex="1" parent="qCNQR4URj5oET9t-w2uO-11">
          <mxGeometry x="50" y="740" width="180" height="120" as="geometry" />
        </mxCell>
        <mxCell id="6VpeM_rR_zzPdDcRQ0ub-16" value="Buy now" style="rounded=1;fillColor=#0057D8;align=center;strokeColor=none;html=1;whiteSpace=wrap;fontColor=#ffffff;fontSize=12;sketch=0;" vertex="1" parent="qCNQR4URj5oET9t-w2uO-11">
          <mxGeometry x="109" y="1011.5" width="86" height="27" as="geometry" />
        </mxCell>
        <mxCell id="6VpeM_rR_zzPdDcRQ0ub-17" value="Price" style="text;html=1;align=center;verticalAlign=middle;whiteSpace=wrap;rounded=0;" vertex="1" parent="qCNQR4URj5oET9t-w2uO-11">
          <mxGeometry x="34.75" y="1010" width="60" height="30" as="geometry" />
        </mxCell>
        <mxCell id="6VpeM_rR_zzPdDcRQ0ub-18" value="&lt;font style=&quot;font-size: 20px;&quot;&gt;&lt;b&gt;Guitar Description&lt;/b&gt;&lt;br&gt;&lt;/font&gt;" style="text;html=1;align=center;verticalAlign=middle;whiteSpace=wrap;rounded=0;" vertex="1" parent="qCNQR4URj5oET9t-w2uO-11">
          <mxGeometry x="500" y="880" width="60" height="30" as="geometry" />
        </mxCell>
        <mxCell id="qCNQR4URj5oET9t-w2uO-25" value="Untitled Layer" parent="0" />
      </root>
    </mxGraphModel>
  </diagram>
</mxfile>
